<?xml version="1.0" encoding="UTF-8"?>
<svg version="1.1" xmlns="http://www.w3.org/2000/svg" width="480" height="480">
<path d="M0 0 C1 1 1 1 1.3125 3.375 C1 6 1 6 -0.7109375 7.51293945 C-3.06215272 9.04037673 -5.39053457 10.24669978 -7.9375 11.41796875 C-8.90574707 11.86398438 -9.87399414 12.31 -10.87158203 12.76953125 C-11.90395996 13.23746094 -12.93633789 13.70539063 -14 14.1875 C-15.06202637 14.6721875 -16.12405273 15.156875 -17.21826172 15.65625 C-24.9216386 19.13971588 -32.69455872 22.39710917 -40.578125 25.44995117 C-44.84174947 27.10346062 -48.94171201 28.87361268 -53 31 C-51.84628906 31.14695313 -50.69257813 31.29390625 -49.50390625 31.4453125 C-26.13558707 34.58739419 -4.07774001 40.80201566 18 49 C18.77085937 49.28375488 19.54171875 49.56750977 20.3359375 49.85986328 C29.52057683 53.2716102 38.25291857 57.42096449 46.93652344 61.92919922 C49.02880514 63.01494786 51.12755012 64.08748855 53.2265625 65.16015625 C66.85940655 72.18866553 79.71342329 80.23632379 92.23046875 89.08984375 C94.9645803 91.0344507 94.9645803 91.0344507 97.86328125 92.62890625 C98.92095703 93.30759766 98.92095703 93.30759766 100 94 C100 94.66 100 95.32 100 96 C101.07314453 96.37125 101.07314453 96.37125 102.16796875 96.75 C105.31409706 98.13863595 107.63810963 99.84463946 110.3125 102 C111.19550781 102.70125 112.07851563 103.4025 112.98828125 104.125 C113.65214844 104.74375 114.31601562 105.3625 115 106 C115 106.66 115 107.32 115 108 C115.55171875 108.2475 116.1034375 108.495 116.671875 108.75 C119.45136707 110.24234474 121.7814707 112.03672523 124.25 114 C125.14203125 114.70125 126.0340625 115.4025 126.953125 116.125 C127.62859375 116.74375 128.3040625 117.3625 129 118 C129 118.66 129 119.32 129 120 C129.56678467 120.24153809 130.13356934 120.48307617 130.7175293 120.73193359 C133.45328617 122.25183104 135.3121634 124.0699521 137.51953125 126.2890625 C138.37740234 127.14886719 139.23527344 128.00867188 140.11914062 128.89453125 C141.00794922 129.79558594 141.89675781 130.69664062 142.8125 131.625 C143.68970703 132.50285156 144.56691406 133.38070312 145.47070312 134.28515625 C150.51702914 139.36545155 155.33730077 144.5681566 160 150 C162.31954375 152.57568969 164.65033613 155.14057882 166.984375 157.703125 C172 163.41860465 172 163.41860465 172 166 C172.66 166 173.32 166 174 166 C175.81386083 168.21247761 177.50977506 170.43664565 179.1875 172.75 C180.27797221 174.23486994 181.36914984 175.71922201 182.4609375 177.203125 C183.03811523 177.99009766 183.61529297 178.77707031 184.20996094 179.58789062 C185.97926128 181.9720542 187.78311185 184.32504435 189.6015625 186.671875 C198.66771881 198.42652446 206.68964642 210.63678391 214.37841797 223.33105469 C215.78827901 225.65153058 217.21742347 227.95770657 218.66015625 230.2578125 C223.37602311 237.8349588 227.31694362 245.60706387 231.0234375 253.72265625 C233.2621889 258.61643735 235.67737853 263.41582379 238.12329102 268.20874023 C239.09790798 270.13184295 240.05363848 272.06282767 241 274 C241.40130127 274.82097168 241.80260254 275.64194336 242.21606445 276.48779297 C245.4326797 283.29045409 247.76224562 290.14253531 249.8125 297.375 C250.12380859 298.42816406 250.43511719 299.48132813 250.75585938 300.56640625 C253.31734218 309.44996639 253.31734218 309.44996639 253 314 C251.8125 315.8125 251.8125 315.8125 250 317 C247.6015625 317.3125 247.6015625 317.3125 245 317 C239.09618941 311.83575964 235.54732779 303.86149789 232 297 C230.89621819 294.90644201 229.78776847 292.8153917 228.67919922 290.72436523 C227.50315683 288.50595483 226.32970088 286.28618828 225.15625 284.06640625 C222.4832889 279.01863987 219.76698367 273.99688698 217 269 C216.66500488 268.3930127 216.33000977 267.78602539 215.98486328 267.16064453 C210.36480042 256.99490609 204.46669555 247.13543397 197.96875 237.5 C197.42903564 236.69739746 196.88932129 235.89479492 196.33325195 235.06787109 C195.25583777 233.46861189 194.17381202 231.87244751 193.08666992 230.27978516 C190.61889526 226.62373417 188.38973711 223.22816988 187 219 C186.34 219 185.68 219 185 219 C183.61558 217.03501678 182.28796166 215.02951535 181 213 C180.13375 211.88625 180.13375 211.88625 179.25 210.75 C178 209 178 209 178 207 C177.34 207 176.68 207 176 207 C175.67 205.68 175.34 204.36 175 203 C174.34 203 173.68 203 173 203 C171.73828125 201.56640625 171.73828125 201.56640625 170.3125 199.5625 C169.51972656 198.47195313 169.51972656 198.47195313 168.7109375 197.359375 C168.14632813 196.58078125 167.58171875 195.8021875 167 195 C165.82081449 193.43121575 164.63332441 191.86863832 163.4375 190.3125 C162.89996094 189.60738281 162.36242187 188.90226563 161.80859375 188.17578125 C159.68378962 185.6195914 157.35903782 183.34164079 155 181 C153.04250564 178.89316748 151.11854046 176.75607229 149.1875 174.625 C145.1375815 170.17823964 141.02929932 166.04384803 136.328125 162.26953125 C135.67070313 161.64111328 135.67070313 161.64111328 135 161 C135 160.34 135 159.68 135 159 C134.195625 158.6596875 134.195625 158.6596875 133.375 158.3125 C129.26245898 156.03977996 125.94835722 152.95627339 122.66015625 149.640625 C99.38107733 126.53246443 68.86463799 107.02997247 39.27929688 93.07763672 C37.63617945 92.3007815 35.9973565 91.51482 34.36132812 90.72314453 C19.57934494 83.57818114 4.72273948 77.72552885 -11 73 C-11.93054199 72.71785645 -12.86108398 72.43571289 -13.81982422 72.14501953 C-20.17061727 70.24526705 -26.55207666 68.5378432 -33 67 C-33.84127441 66.79890625 -34.68254883 66.5978125 -35.54931641 66.390625 C-53.2858365 62.34203433 -71.38487425 62.008401 -89.48944092 61.30038452 C-95.02319873 61.07284442 -100.49768185 60.65032537 -106 60 C-99.10486267 67.90970589 -91.79920941 75.35571361 -84.37036133 82.76000977 C-82.43389451 84.69109547 -80.50286044 86.62749882 -78.57226562 88.56445312 C-72.55272776 94.58761985 -66.53548783 100.53099224 -60 106 C-58.8583077 106.98444065 -57.71766834 107.97010386 -56.578125 108.95703125 C-53.05961583 111.9801885 -49.53154164 114.9920839 -46 118 C-45.46262207 118.45874512 -44.92524414 118.91749023 -44.37158203 119.39013672 C-38.11157793 124.72244162 -31.7573001 129.73790614 -24.984375 134.40625 C-24.32953125 134.9321875 -23.6746875 135.458125 -23 136 C-23 136.66 -23 137.32 -23 138 C-22.01 138.33 -21.02 138.66 -20 139 C-17.30707776 143.03938336 -17.22766477 146.25802776 -18 151 C-19.875 154.0625 -19.875 154.0625 -23 156 C-28.33056495 156.94747107 -32.77360852 156.58699042 -37.3515625 153.61328125 C-38.79508974 152.53813336 -40.21911039 151.4364165 -41.625 150.3125 C-42.39134766 149.72960205 -43.15769531 149.1467041 -43.94726562 148.54614258 C-46.32176344 146.72544996 -48.66401334 144.8697729 -51 143 C-52.09779785 142.12746582 -52.09779785 142.12746582 -53.21777344 141.23730469 C-57.26253637 138.01215296 -61.26270347 134.73698641 -65.24609375 131.43652344 C-66.88659605 130.09288263 -68.54480022 128.77817383 -70.21875 127.4765625 C-71.59546875 126.40535156 -71.59546875 126.40535156 -73 125.3125 C-74.175625 124.40951172 -74.175625 124.40951172 -75.375 123.48828125 C-75.91125 122.99714844 -76.4475 122.50601563 -77 122 C-77 121.34 -77 120.68 -77 120 C-77.598125 119.71125 -78.19625 119.4225 -78.8125 119.125 C-81 118 -81 118 -84 116 C-84 115.34 -84 114.68 -84 114 C-84.58910156 113.73960937 -85.17820313 113.47921875 -85.78515625 113.2109375 C-88.13575944 111.92577526 -89.60327056 110.56513183 -91.4375 108.625 C-93.46591756 106.52723483 -95.39002449 104.69160854 -97.6875 102.875 C-100.21978152 100.82179877 -101.96791121 98.54011099 -104 96 C-104.763125 95.401875 -105.52625 94.80375 -106.3125 94.1875 C-109.30721643 91.74994012 -111.62252876 89.05918873 -114.12109375 86.12890625 C-115.9591323 84.0463054 -117.87996347 82.11907613 -119.875 80.1875 C-124.66685992 75.4605202 -128.82602179 70.27160754 -133 65 C-133.68964844 64.13117188 -134.37929687 63.26234375 -135.08984375 62.3671875 C-141.15822531 54.64830544 -141.15822531 54.64830544 -141.375 49.6875 C-141.44847656 48.54861328 -141.44847656 48.54861328 -141.5234375 47.38671875 C-140.72566363 43.74910803 -138.84150734 42.32626785 -136 40 C-132.87109375 38.59375 -132.87109375 38.59375 -129.4375 37.5 C-125.07413537 36.04254625 -120.79178113 34.56077726 -116.5625 32.75 C-103.50004797 27.21952636 -90.33787984 21.7642764 -76.69921875 17.82421875 C-74.05660542 17.01728472 -71.55104146 16.05854025 -69 15 C-58.98988791 10.88669551 -48.58148482 8.33525564 -38.05859375 5.9375 C-34.68741714 5.16837462 -31.34396735 4.31821568 -28 3.4375 C-23.05163597 2.19526159 -18.07715287 1.18091162 -13.0625 0.25 C-12.33998047 0.11005615 -11.61746094 -0.0298877 -10.87304688 -0.17407227 C-6.9784607 -0.86946903 -3.80736748 -1.18483542 0 0 Z " fill="#EB1D26" transform="translate(185,66)"/>
<path d="M0 0 C0.33 0 0.66 0 1 0 C1.125 2.375 1.125 2.375 1 5 C0.34 5.66 -0.32 6.32 -1 7 C-1.99 7 -2.98 7 -4 7 C-2.92598892 4.08482708 -2.22189824 2.22189824 0 0 Z " fill="#DF2225" transform="translate(185,67)"/>
</svg>
